<?xml version="1.0" encoding="utf-8"?>
<!-- Generator: Adobe Illustrator 24.0.1, SVG Export Plug-In . SVG Version: 6.00 Build 0)  -->
<svg version="1.1" id="Layer_1" xmlns="http://www.w3.org/2000/svg" xmlns:xlink="http://www.w3.org/1999/xlink" x="0px" y="0px"
	 viewBox="0 0 127.9 127.9" style="enable-background:new 0 0 127.9 127.9;" xml:space="preserve">
<style type="text/css">
	.st0{fill:#2F2B23;}
	.st1{fill:#949D8C;}
</style>
<path id="cruelty-free" class="st0" d="M42.6,90.5c0,0-3.7,5.2-7.1,6.3s-8.6,1.9-10.6,0.3s1.8-4.9,2.3-5.3s5.3-3.6,7.5-5.9
	c1.9-2,3.6-4.3,4.8-6.8c1.3-2.4,3.1-3.8,3.7-3.4c0,0,0.9,0.5-2.2,2.6s-9.7,3.7-11.9,4s-6.9-0.2-9.2-3.6c-1.7-2.2-2.2-5.1-1.5-7.8
	c0.8-3.7,2.7-7.1,5.5-9.6c4.1-3.7,6.7-4.3,11-6.6s5.7-6.8,6.6-9.1c1.8-4.1,4.3-7.8,7.5-11c3.8-3.7,6.7-5.8,9.4-6.4s3.7,0.7,3,2.9
	s-2.5,8.5-4.4,11.5c-2.2,3.2-5,6-8.1,8.3c-2.3,1.5-3,1.3-1.9-0.6c2.1-2.9,4.5-5.5,7.2-7.9c3.7-3.1,7.9-5.6,12.3-7.4
	c5.3-2,6-0.5,6,0.9s-0.7,2.8-2.4,5.6s-5.2,8.1-7,9.9c-2,2.2-4.5,3.9-7.3,4.8c-4.2,1.6-5.7,2-7.6,4.4s1.6,2,3.1,1s5.6-4.5,9.2-5.5
	c5.3-1.7,10.8-2.2,16.3-1.5c7.5,0.9,11.3,2.8,14.9,5.1s8.2,7.5,9.5,11c1.1,2.8,1.7,5.7,1.8,8.7c0.2,2.6,0.9,5.8,3.9,6.7
	s4.6-0.8,5.3-2.9c0.6-2.5-0.2-5.1-2-6.8c-1.8-1.5-2.7-1.7-5.4-1.5s-3.5,0.3-8.2-1.8s-5.8-2.7-13.4-3.3s-12.2,0.6-15.9,4.1
	c-3.7,3.5-4.3,8.9-0.7,12.9c3.5,3.6,8.1,5.8,13.1,6.1c3.5,0,4.9-0.9,4.9-1.4s-1.9-1.3-6.7-1.5c-4.3-0.2-8.6,1.4-11.8,4.3
	c-3.3,2.7-1.9,4.9,0.1,5.5s10.2,1,17.4-0.3s9.5-1.8,12.4-4.9s4.5-9.4,4.8-10.5s0.4-1.4,0.2-1.5s-0.3,0.1-0.4,0.9
	c-1,3.3-2.8,6.3-5.3,8.8c-4,4.2-6.5,6.1-11.1,6.7s-11.9,1.4-14.8,0.8s-3.4-3-1.8-5.1s3.8-4,8.7-3.9s3.3,1.8,1.2,1.4
	c-4-0.5-7.6-2.6-9.9-6c-3.3-4.9-0.3-10.6,5.2-13c3.8-1.8,8.1-2.8,12.3-2.7c3.1,0,5.6,0.2,11.1,2.7s7,2.2,8.8,2.1s4.4-0.1,5.2,2.4
	s0,4.3-1.6,5.4c-1.5,0.9-3.5,0.4-4.3-1.1c-0.2-0.3-0.3-0.7-0.4-1.1c-0.3-2.5-0.6-4.9-1.2-7.4c-1.4-4.9-4.4-9.3-8.4-12.5
	c-5.4-4.3-12.4-6.5-19.7-6.9s-14.3,1.3-17.9,3.3s-4.8,2.8-5.3,2.4s0.2-0.9,1.7-1.6c3.7-1.5,7-3.5,10-6.1c4-3.9,7.6-8.2,10.6-12.9
	c3.7-5.6,3.7-6.4,2.5-6.9c-1.2-0.6-4.3-0.7-9.5,1.8c-6.3,3-12,7-16.9,12c-5.7,5.9-7.2,9.1-6.4,9.8s5.5-2.3,7.9-4.8s5.9-7.4,8.9-14.7
	s4.4-9,3.2-10.6c-1.2-1.6-8.2,2-10.7,3.8s-6,4.9-7.6,7.7c-1.7,3.1-3.2,6.2-4.5,9.5c-1.1,3.6-3.7,6.5-7.1,8.1
	c-3.8,1.8-9.6,3.9-13.7,10.4s-4.5,9.1-3.5,11.8c0.9,2.7,5.9,5.1,10,5.6s12.1-2.1,15.5-3.9s5.6-4.7,5.1-5.6s-3.3,0.3-5.1,1.9
	s-4.2,7.1-5.6,8.6s-2.2,3-9.6,6.7s-6.7,6.9-5.5,7.8s6.9,1.5,12-0.1c3.4-0.9,6.3-2.9,8.4-5.7c1.5-1.7,1.7-2,1.6-2.1
	S42.7,90.4,42.6,90.5z"/>
<g id="Ellipse_40">
	<path class="st1" d="M63.9,127.9C28.7,127.9,0,99.2,0,63.9S28.7,0,63.9,0s63.9,28.7,63.9,63.9S99.2,127.9,63.9,127.9z M63.9,6.2
		C32.1,6.2,6.2,32.1,6.2,63.9c0,31.8,25.9,57.8,57.8,57.8c31.8,0,57.8-25.9,57.8-57.8C121.7,32.1,95.8,6.2,63.9,6.2z"/>
</g>
</svg>
