<?xml version="1.0" encoding="utf-8"?>
<!-- Generator: Adobe Illustrator 24.0.1, SVG Export Plug-In . SVG Version: 6.00 Build 0)  -->
<svg version="1.1" id="Layer_1" xmlns="http://www.w3.org/2000/svg" xmlns:xlink="http://www.w3.org/1999/xlink" x="0px" y="0px"
	 viewBox="0 0 127.9 127.9" style="enable-background:new 0 0 127.9 127.9;" xml:space="preserve">
<style type="text/css">
	.st0{fill:#2F2B23;}
	.st1{fill:#949D8C;}
</style>
<path id="eco-friendly" class="st0" d="M12.5,84.8c2.6-1.6,5.3-3,8.1-4.1c4.8-2,5.8-1.4,8.6-0.1c0,0,5.6,2.6,16.6,3.5
	c7.1,0.6,17.3-1.8,23.1-4.8s15.7-8.6,22.7-16.2s11.2-11.8,10.9-16.9s-7.3-7.2-15.6-7.7s-18.2,0.6-25.9,3.8S42.3,53.2,37.5,59
	s-6.2,11.2-6.3,13.2s0.6,3.5,3.2,3.2s6.7-1.3,11.4-6.3s4.3-6.7,3-7.3s-4.1-0.1-5.9,2.3c-1.8,2.4-2.6,6.9,1.9,8.2s8,0.3,11-3.3
	s2.2-7.5,4.6-10.9s5.2-5.4,7.5-4.7s-0.1,1.7-0.7,1.9s-5.9,1.7-7.2,5s-1.2,5.9,2.7,7s7.4-1.1,9.5-3.4c3.1-3.3,3.8-7.4,5.1-10.8
	s5.2-7.1,9.5-6.5s6.7,5.1,4.2,9.6s-7.7,5.1-9.9,4.3s-3.2-2.7-2.8-3s0.7,1,1.9,1.8s3.3,1.4,7-1.3s2.9-6.5,1.3-8.3s-6-2.5-8.4,0.4
	s-4.4,9.9-5.7,12c-1.3,2.1-5.2,6.8-9.7,6.7c-2.7,0-5-1.6-6-4.1c-0.9,2.9-2.5,5.5-4.7,7.5c-3.4,2.8-8,4.2-12-0.2s2.4-11.3,5.6-11.8
	s4.3,0.5,3.5,2.6c-0.8,2.1-2,5-8.9,10.4s-13,5.1-13.7,4s0.6-5.5,4.2-11.8S41,53.7,52.6,46.2s25.6-8.6,33.7-8.9s13.9,0.1,18.9,1
	s6.6,1.3,5.7,3.2s-5.7,9.5-13.4,17.4S79.7,75.1,67.5,80.7S47.6,85,42.8,84.7c-5.1-0.4-10-1.5-14.8-3.2c-3.6-1.3-7-0.6-10.7,1.3
	c-1.6,0.7-3.2,1.6-4.7,2.6c-0.4,0.3-0.5,0.2-0.6,0.1S12.3,84.9,12.5,84.8z"/>
<g id="Ellipse_40">
	<path class="st1" d="M63.9,127.9C28.7,127.9,0,99.2,0,63.9S28.7,0,63.9,0s63.9,28.7,63.9,63.9S99.2,127.9,63.9,127.9z M63.9,6.2
		C32.1,6.2,6.2,32.1,6.2,63.9c0,31.8,25.9,57.8,57.8,57.8c31.8,0,57.8-25.9,57.8-57.8C121.7,32.1,95.8,6.2,63.9,6.2z"/>
</g>
</svg>
