<svg xmlns="http://www.w3.org/2000/svg" width="691.982" height="188" viewBox="0 0 691.982 188">
  <g id="Group_219" data-name="Group 219" transform="translate(372.049 -1029.161)">
    <g id="Group_7" data-name="Group 7" transform="translate(-370.546 1214.659)">
      <path id="Path_32" data-name="Path 32" d="M4953.287,1548.063s-463.733-1.2-511.233,0" transform="translate(-4442.054 -1547.529)" fill="none" stroke="#2f2b23" stroke-linecap="round" stroke-width="3"/>
    </g>
    <g id="Group_38" data-name="Group 38" transform="translate(43.832 1029.161)">
      <path id="Path_99" data-name="Path 99" d="M269.67,57.8c-.268-4.231,5.572-8.372,10.517-9.326s7.558-.467,7.876,1.2-2.463,3.575-9.216,3.734-13.03-1.986-13.825.874-.556,13.11-1.271,17.082-2.225,9.217-5.641,9.137-7.707-7.945-8.819-13.428.795-10.567,2.7-10.488,2.225,5.005.794,10.011-3.893,13.11-7.627,14.063-6.515-3.814-7.627-12.077-4.449-9.375-5.4-4.688-.953,16.447,5.244,18.512,8.5.4,26.219.477,51.246-1.033,70.315-1.748,53.154-.874,68.488-1.112,23.041,0,31.145,1.271,7.707.874,9.058,5.164,6.356,18.274,5.562,23.994a8.3,8.3,0,0,1-11.521,6.356c-4.688-1.986-7.786-8.184-8.66-10.885s-3.178-11.123-2.7-15.334,3.337-4.449,4.767-.636a22.136,22.136,0,0,1-2.225,20.816c-5.879,8.9-10.726,6.038-13.9,1.907s-8.342-11.2-9.693-16.923S403.19,84.955,405.414,84.8s6.277,7.23,6.435,13.268-.465,14.123-4.529,18.036-9.3,3.019-13.03-.795a35.862,35.862,0,0,1-9.3-16.765c-1.907-7.627-1.033-13.189,1.589-13.586s4.767,5.562,4.846,9.852-2.622,18.592-6.912,22.326-8.581,1.192-12-2.781-5.959-10.011-6.833-16.923,2.145-11.362,4.608-11.044,2.542,7.071,1.43,12.315-4.37,16.765-9.375,19.386-11.123-.795-14.778-6.992-5.164-17-4.529-21.373,4.449-6.038,6.118-1.907,1.351,19.863-5.482,26.7-11.632,6.2-15.43,1.907-5.625-11.6-6.579-18.909,1.112-11.044,3.814-11.2,4.846,6.594,3.178,11.918-3.734,16.526-8.5,19.466a12.387,12.387,0,0,1-15.061-2.053c-3.769-3.936-4.961-8.355-5.279-14.552s.795-13.348,4.449-13.189,3.575,8.1,1.51,13.745-5.323,20.9-13.348,21.214-12-7.945-13.427-17.082,1.033-16.606,4.688-15.97,3.257,5.72-.874,16.526-6.753,15.414-9.455,17.4-11.044.159-13.189-4.767-3.019-14.619-2.145-20.26,3.973-8.978,6.594-8.184.874,10.011-.953,13.268-8.5,17.241-13.666,20.5-11.68,1.192-14.7-5.641-1.192-16.606.874-22.485,5.085-6.436,6.118-6.038,1.827,6.436-2.3,13.984-5.085,9.455-8.342,11.759-8.342,2.7-8.342,8.1.795,36.31,1.112,41.871.556,19.545,1.668,29,1.907,17.8,5.323,22.088,13.269,7.23,26.3,8.184,29.953,1.351,36.945.953,9.614-.556,9.693-3.575a114.861,114.861,0,0,0-.4-12.236c-.318-1.907-2.225-10.726-13.348-10.885s-24.154-.953-32.5-.238-19.148,1.986-23.756.4-7.309-4.767-1.112-7.389,12.077-.715,17.082-.953,7.31-.794,7.151-3.655-.318-9.614-.238-11.759.079-4.847-6.753-3.973-10.408,1.51-12.474,1.827-5.323,1.192-6.118-3.257-.874-15.493-.874-18.671.4-4.211,4.052-3.893a104.864,104.864,0,0,0,14.222.4c6.356-.238,8.184,1.112,8.581,4.608s-.238,10.488.795,12.951,3.734,4.608,10.011,5.006,12.712-.636,12.871-6.277-1.351-17.526-.636-24.654,2.781-12.053-3.258-13.007-14.619-1.51-17.4,2.066-1.827,6.693-1.827,10.259-.556,9.683,3.178,9.445,22.088-.318,27.411-.556,7.071-.874,9.773-5.641,5.244-6.515,5.244-2.225.318,27.649.636,31.781.4,5.005-2.94,3.734-11.838-2.622-14.858-2.384-5.244.477-5.164,5.164.953,11.52,1.351,12.156,1.271,1.748,6.038,1.589,14.857,0,18.115,0,7.627.477,9.455-2.145.477-12.315.715-15.89-.636-4.767,2.066-4.767,20.181.715,23.915.159a36.375,36.375,0,0,0,8.66-2.3c1.271-.636,3.019-1.589,3.734,1.51s.079,12.553-.079,25.981.636,24.551.874,27.093-.4,4.37-3.258,4.449-17.67.477-26.155.318-13.332.4-13.332-4.688.238-23.438-2.3-36.389,3.5-18.91,4.529-20.816,1.907-4.449,1.351-12.712-1.51-13.825-2.225-19.784.953-7.468,3.257-7.468,16.208-.4,24.233-.477,13.507-.715,13.109,6.277-.953,19.942-.874,23.915,1.192,7.468-4.767,7.548-21.77.556-26.537.794-9.852,1.51-11.123-3.734-3.973-18.592-4.529-28.126-1.033-10.249,7.23-10.567,28.523-.159,34.164-.715,10.011-1.589,10.408,3.337-.4,26.855,0,37.74.874,25.9,1.112,28.6-.02,3.034.715,4.052c1.033,1.43,1.306,2.7,5.482,3.1s13.745-.159,25.822-.4,43.46-1.033,47.989-1.112,3.655,5.641,3.416,9.375a113.242,113.242,0,0,0,.238,17.082c.636,4.847-1.51,4.529-6.594,4.29s-22.644-.477-33.529-.636-32.337,1.112-38.137,1.192-4.688-2.94-4.449-5.641.636-6.118.953-13.507-.119-56.332-.119-56.332c-.6-12.871-.834-20.022-.834-23.955s1.788-6.555,4.29-6.436,3.695,1.43,4.529,8.462-.715,13.229,3.1,14.182,13.269.358,27.649-.675,23.995-1.43,30.112-2.066,8.184.238,7.707,4.847-1.192,12.156-.715,15.572,1.51,8.263-1.669,8.184c0,0-1.192-.079-3.814,0s-11.68.318-14.222.318-3.258,4.608-4.131,3.258-.953-1.351-5.005-2.225a46.928,46.928,0,0,0-12.236-1.351c-5.879,0-10.249-.238-17.082-.556s-9.852.953-11.123,2.86-1.668,10.329-1.986,14.778,1.351,4.688,4.052,4.926,14.7-.238,17.559-.477,3.1-1.907,3.416-8.1a221.361,221.361,0,0,0-1.112-27.332,190.489,190.489,0,0,1-.4-23.518c.079-4.37-.318-6.912,4.449-9.137s9.773-2.542,16.208-3.416,6.436,1.51,6.594,3.337.392,18.991-.238,39.408,1.51,21.532,1.51,21.532c2.622,5.085,9.3,9.137,17.162,4.29s7.865-14.061,7.945-21.133.795-26.7,1.113-36.072-.556-12.156,3.893-13.666,5.959-6.038,4.052-12.871-6.992-14.937-9.058-18.989-1.907-7.866-2.3-15.1-.636-17-1.589-19.863-2.86-4.688-11.2-5.244-46.956-1.43-56.729-1.668-16.447-1.986-34.959-1.192-59.748.715-67.852,1.192-18.353-1.271-32.178,1.43S225.3,47.93,224.263,54.525s.953,17.877,1.271,24.551S223.072,92.741,220.053,101s-4.211,11.679-2.066,15.016,1.986,8.1,2.145,13.268-.715,20.022-.4,28.523-.556,32.019.4,42.586.556,16.049.953,19.068,2.225,7.151-1.112,6.595-17.638-.4-22.326.079A63.441,63.441,0,0,1,186.6,225.9s-1.351-.636-.477-.953c0,0,3.933,1.43,18.472-.834s14.063-5.959,14.421-11.918-.358-22.167-.238-35.873.321-40.64.339-46.837-1.293-10.488-4.391-8.938-7.627,5.442-6.912-.318,5.244-8.978,9.415-17.082,7.627-16.923,6.793-22.644-2.86-23.359-3.218-29.437,1.192-9.892,7.627-10.249a439.239,439.239,0,0,1,47.791-.834c23.955,1.073,35.038,1.549,51.962.834s38.852.6,44.453.834,34.085-.358,41.712-.358,21.333.358,24.908.477,8.223.715,7.508,9.3-5.125,27.173-1.311,33.251,12.99,23.955,15.493,31.344-.238,9.177-3.1,5.84-11.2-6.436-11.083-.358-1.668,31.94-1.549,39.925.477,18.473.6,21.571.477,8.7-4.767,9.534a101.946,101.946,0,0,1-19.9,1.073,135.806,135.806,0,0,0-14.3.238s-5.6-.715.119-3.1,8.819-2.622,8.938-10.965a29.309,29.309,0,0,0-.238-4.847c-.318-1.192-1.907-3.337-2.145-4.052s2.94-4.449,3.258-6.753,1.192-18.652-.159-24.62-3.1-15.185-9.058-15.582-9.632-.393-13.268,5.005-3.655,15.97-2.7,22.008a196.153,196.153,0,0,1,1.43,21.929c0,3.973.238,12.712-.715,16.288s-3.257,2.781-5.164,2.86-13.03.715-16.446.4-4.767-1.271-4.529-4.767.556-14.857.556-18.592-.238-7.468-.238-7.468,0-3.655,3.575-.159,12.633,6.753,18.353,6.992,16.923.079,20.578,0,4.549-.06,5.581-1.092,2.284-2.3,2.364-1.807.338-.238,1.212,1.47,3,1.668,3.655,1.649,8.174-.689,9.594-1.013c5.674-1.3,5.363-3.337,5.482-7.985s1.073-12.752-.6-14.54-3.456-2.622-7.747-2.741-40.521,2.384-48.863,2.741-9.534-1.6-9.653-4.91-.834-7.367-2.979-7.307-2.741,4.827-2.622,9.356-.6,33.012-.6,41v10.607s.159,7.985.715,12.315-.2,8.422,2.105,11.918,6.436,5.959,21.492,6.277,38.177.556,42.03.079,11.64-2.264,12.355-6.912,0-13.705-.238-16.01-1.033-4.251-8.1-4.33-30.867-.953-48.148,1.271-19.943,2.86-24.273,1.907-4.336-4.13-4.251-6.038c.339-7.623,1.907-17.877,1.788-22.644s-.477-8.581-.715-22.763-.834-19.9-1.549-23.24-1.073-4.171-7.627-4.29-24.908-.119-28.245.477-8.7.834-8.938,6.436,0,21.214.953,26.458.715,7.985,9.415,7.389,23.359-1.311,26.815-6.912,3.1-16.208,1.192-20.856-6.555-7.508-14.42-7.508-15.493-1.43-17.281,3.337-1.907,7.389-1.073,12.633,1.668,17.281-.6,22.763-4.171,12.752-3.337,23.359.6,23.478,4.052,29.2,9.845,7.508,17.615,7.627,16.351-.119,16.351-.119,4.171,1.311,3.814-3.933-1.43-24.312-1.788-30.986-3.456-14.421-5.959-16.447-8.819-2.979-14.3-2.622-10.011,2.026-11.8,6.2-1.668,8.1.238,10.368,2.58,9.021-1.57,8.205-7.13-2.961-14.638-2.961-17.4,0-20.5-.119-3.337-1.192-3.814-5.244-1.073-10.488-.834-12.275,1.43-3.337,8.462-3.456,13.348.119,13.705-3.575.477-10.607-.953-15.374-3.575-3.933-11.8-3.933-23.478.477-27.173.358-5.244-.238-5.721-5.363-.358-12.156-.6-14.778,1.311-4.171,5.363-4.29,12.633.119,18.592-.238,8.581,0,6.793,4.052-6.316,13.467-5.482,23.478,1.43,13.705,1.43,13.705,1.907,5.721-4.886,5.959-17.519-.119-17.519-.119-3.814.238-4.052-5.6.477-10.964,0-12.752.834-3.1-7.508-2.86-14.3,1.073-15.255,6.316-.715,12.99,3.814,13.586a48.073,48.073,0,0,0,12.395.119c4.171-.477,8.938-.6,8.462,5.244s-.119,11.441-.238,12.633-.119,3.1-5.482,3.218-11.56.953-11.8,3.1,6.436,3.337,10.607,3.1,37.064.119,43.858.238,9.653.477,9.653,6.2.119,18.353.119,18.353.6,2.929-5.005,3.55-21.69.689-38.018.477-27.173.5-30.748.741-8.343.6-8.1-8.223.358-36.349,0-48.625-1.311-38.852-1.549-45.645,4.529-7.985,6.674-8.938,6.078-2.741,9.3-10.964.477-10.011-1.43-4.767-3.694,13.348.6,16.446,10.607,5.959,15.732,1.788,9.772-17.043,10.368-19.426-1.311-5.125-2.979-.6-3.1,16.447,2.741,18.949,13.467,3.1,16.208-5.482,2.86-8.342,3.575-12.156-.953-6.436-2.145-2.5-1.192,11.8,2.741,17.281,12.514,4.171,15.374,1.549,4.648-12.991,5.244-16.447-.477-7.627-2.026-2.384-.953,14.659,4.648,17.162,15.64,2.384,17.176-3.933,2.537-10.13,2.751-13.11-1.307-3.814-2.155-.358-.729,13.467,4.515,16.8,11.68,1.311,15.374-2.5,4.052-12.633,3.575-16.566-2.741-4.052-2.741.953,0,11.8,4.886,15.612,11.56,4.171,16.208-1.192,4.529-14.778,4.29-15.612-2.264-2.622-2.5,1.788-1.788,11.441,7.627,16.8,12.991-5.482,13.706-11.084-.358-8.462-2.026-8.462-1.549,9.773,4.052,15.731,15.255,5.363,17.519,1.192,1.073-9.773.358-12.395-3.1-4.529-2.145.119,5.006,10.964,10.011,13.229,10.845-.477,12.275-7.151.477-7.627-.477-8.581-1.788,1.192-1.549,3.218,1.073,10.607,7.031,13.229,9.772-3.933,7.985-10.607-1.43-14.778-13.11-17.043-57.92-3.814-71.268-3.456-87.477,2.979-97.845,3.814-15.732,1.073-24.312,4.886-10.845,5.84-8.1-1.311,2.979-21.095,2.622-28.245.119-9.177,1.907-9.415,3.933,2.026,4.886,6.436,1.192,18.473,6.078,18.711,7.151-3.933,8.1-9.415-1.073-4.171-1.192-1.668,1.311,8.462,5.959,10.845,6.912-3.337,6.793-8.343.119-7.151-1.43-11.679-1.669-6.555,1.668-5.72,9.772,2.622,15.85,2.026,4.171-2.5,1.668-2.264-6.078,3.218-6.674,7.508,2.5,5.244,4.41,5.6,2.979.358,2.979-.3-3.546-1.46-6.644,1.549-5.125,8.551,1.966,10.845,9.951-3.188,10.13-3.694,1.4-1.877,1.311.06-3.039,7.121-7.925,7.866-10.488-1.52-10.816-7.061c0,0,.02-5.452,3.953-8.352s5.84-3.218,9.375-2.821,3.734,2.542-.079,3.1a18.329,18.329,0,0,1-10.726-2.344A7.38,7.38,0,0,1,269.67,57.8Z" transform="translate(-185.832 -39.658)" fill="#2f2b23"/>
      <path id="Path_100" data-name="Path 100" d="M786.836,90.374c-.656-1.132-2.979-.715-4.469.775s-1.49,2.443-6.078,3.575-6.5-6.436-5.184-9.594a8.673,8.673,0,0,1,3.061-3.836,13.376,13.376,0,0,0,3.673.916c4.112.417,6.436-1.788,3.277-2.86a9.647,9.647,0,0,0-7.118.6,4.863,4.863,0,0,1-1.761-4.588,5.868,5.868,0,0,1,.576-1.978c1.055.338,2.087.628,3.083.846,6.167,1.346,10.047-.358,8.914-2.741s-5.125-3.516-9.713-2.145a11.26,11.26,0,0,0-4.271,2.365c-.679-.225-1.263-.45-1.688-.637-2.026-.894-10.487-5.244-16.089-5.244s-10.726,2.324-13.467,6.614-.179,5.125,2.324,3.277,3.575-5.184,5.482-6.793,2.86-2.324,8.819-1.251c4.186.753,9.162,3.017,13.89,4.765-1.4,1.571-1.945,3.35-1.2,4.65a9.99,9.99,0,0,0,3.822,3.519,16.368,16.368,0,0,0-1.915,1.308c-3.4,2.681-4.648,7.329-1.49,11.143s9.415,3.277,11.083,2.2,1.966-.477,1.251.179-3.337,2.264-9,.536a26.809,26.809,0,0,1-13.05-8.819c-.958-1.183-1.8-2.177-2.57-2.992,3.1-1.234,4.477-3.773,4.477-7.734,0-4.588-6.972-8.7-11.739-5.84s-3.277,6.078-3.754,14.9-4.35,9.673-4.35,9.673C738.331,97.385,740,99.054,740,99.054c3.456,2.066,6.257-1.827,7.091-4.688s-.477-13.467.731-18.053,5.526-5.246,8.327-4.889,4.707,4.767,4.112,7.925c-.379,2.008-2.42,3.2-4.178,3.873a6.677,6.677,0,0,0-3.688-1.966c-2.324-.3-4.588-.179-2.741,2.2s5.78,1.192,5.78,1.192l.154-.037c.6.686,1.28,1.53,2.05,2.54,2.682,3.516,5.542,8.64,9.475,10.607s12.394,1.371,16.685-1.132S787.492,91.506,786.836,90.374ZM743.456,72.08c-.775,1.788-2.086,1.49-2.086,1.49-.536-.536-.1-1.291.358-1.788a22.563,22.563,0,0,1,3.158-2.562A25.352,25.352,0,0,0,743.456,72.08Zm33.727-1.43c2.324-.536,4.588.417,2.086,1.728-1.369.717-3.666.524-5.8.056A6.963,6.963,0,0,1,777.183,70.65Zm.119,9.475c2.145-.119,2.682,1.609-.238,1.132a7.129,7.129,0,0,1-1.861-.565A5.722,5.722,0,0,1,777.3,80.124Zm-23.6,3.814c-1.251.3-2.8-1.43-1.549-1.619.706-.107,1.508.328,2.554,1.359C754.288,83.8,753.937,83.883,753.7,83.938Z" transform="translate(-634.59 -60.907)" fill="#2f2b23"/>
      <path id="Path_101" data-name="Path 101" d="M1039.081,92.832c-4.41-.834-7.152.367-8.283,1.192a13.032,13.032,0,0,0-5.542,13.646c1.668,9.475,8.223,12.156,13.407,11.2s8.64-6.793,8.879-13.348S1043.491,93.666,1039.081,92.832Zm4.708,16.327c-4.171,8.283-11.68,6.2-15.374,1.132s-2.324-10.428.6-13.11a16.623,16.623,0,0,1,5.542-3.516,11.009,11.009,0,0,1,7.329,1.609S1048.24,100.32,1043.789,109.159Z" transform="translate(-867.35 -82.613)" fill="#2f2b23"/>
      <path id="Path_102" data-name="Path 102" d="M1076.165,88.73s-1.549,3.146,3.694,4.4,9.236,1.728,11.8,0,3.456-3.754,4.052-1.251.477,11.441.358,13.825-1.668,4.052-1.609-.775c0,0,1.669-9.892,4.052-12.931s5.78-5.244,10.249-2.86,5.542,5.84,1.728,9.594-7.985-.477-8.223-2.562a7.369,7.369,0,0,1,3.933-6.733c2.92-1.668,4.946-1.49,8.879,0s9.236,3.694,12.1,4.648,6.793,1.549,5.661-1.371-5.78-5.423-10.667-3.456-7.627,6.364-3.456,9.141,8.581,2.948,9.534,1.1-3.575-2.511-5.72-2.266-6.793,1.972-7.27,7.1,2.681,10.488,9.594,9.594,10.309-7.627,12.275-13.11,1.728-5.244,3.337-5.184,3.337,1.839,4.469,4.108,3.337,7.572,4.35,10.194,2.562,4.474,3.933,4.65,1.728-4.829,1.37-8.345-.655-7.985.715-11.143,3.754-6.972,1.49-8.044-3.575,1.847-3.516,5.125a112.088,112.088,0,0,1-.6,12.812c-.358,1.788-.953,2.979-2.145.894a90.171,90.171,0,0,1-6.138-11.084c-2.8-6.138-2.86-6.436-4.588-6.436s-2.979,2.324-3.277,4.827-1.009,11.838-5.382,16.076-12.66,1.372-14.163-2.43a5.754,5.754,0,0,1,1.669-7.031c1.09-.775,3.158-1.966,5.065-1.49s1.549,1.541-.477,1.128a4.836,4.836,0,0,1-3.575-4.465c-.119-2.026,2.8-5.3,4.946-5.244s5.3,1.49,2.979,2.026-9.177-1.549-12.335-3.158-9.713-1.668-13.11,1.192-5.959,8.223.06,12.573,10.964-2.8,11.679-6.733-3.277-8.437-8.342-8.568-7.329,1.112-11.977,12.438-1.251,15.616,1.311,15.557,3.456-3.516,2.86-10.19-.477-14.33-.536-15.955-1.669-3.174-3.278-.671-2.92,4.767-6.555,4.708-6.225-.455-5.764-1.9l.461-1.441A9.141,9.141,0,0,0,1076.165,88.73Z" transform="translate(-908.723 -77.962)" fill="#2f2b23"/>
    </g>
  </g>
</svg>
