<?xml version="1.0" encoding="utf-8"?>
<!-- Generator: Adobe Illustrator 24.0.1, SVG Export Plug-In . SVG Version: 6.00 Build 0)  -->
<svg version="1.1" id="Layer_1" xmlns="http://www.w3.org/2000/svg" xmlns:xlink="http://www.w3.org/1999/xlink" x="0px" y="0px"
	 viewBox="0 0 127.9 127.9" style="enable-background:new 0 0 127.9 127.9;" xml:space="preserve">
<style type="text/css">
	.st0{fill:#2F2B23;}
	.st1{fill:#949D8C;}
</style>
<path id="handmade" class="st0" d="M56.1,118c0.2-2.1-0.5-4.1-1.8-5.7c-1.6-1.9-3.4-3.5-5.4-4.9c-3.1-2.1-5.9-4.4-8.1-9.2
	s-4-9.8-6.8-15.9S28.4,70.6,27.1,68s-2.3-4.4-0.2-5.2s4.5-0.5,7.2,1.2c0,0,2.8,1.3,7.1,7.6s3.9,6.7,5.7,6s-0.1-10-1.1-13
	S42,49.5,40.9,43.4S38.8,33.2,39,29s2.2-4.4,3-4.4s3.3,0.1,4.6,3.5s4.4,14.9,5.3,18.5c1.2,4.7,2.8,9.3,4.5,13.9
	c0.7,1.4,1.3,1.3,1.5-0.6s-0.2-12-0.7-20.7s-0.4-19.1,0-21.9s2.3-4.2,3.7-4.3s3.1,1,3.8,5c0.7,4,1.9,13.5,3,22.9
	c1.2,9.4,2.1,15.2,2.5,16.3s1.3,1.8,1.9-0.1c0.7-2.5,1.2-5.1,1.4-7.7c0.5-3.8,1.6-10.8,2.4-14.9s1.7-10.3,4.6-11s3.8,3.7,3.9,4.3
	s0.2,8.9-0.2,13.5s-1.9,14.2-2.1,16.8S82,61.8,83.2,60c2.2-4,4.2-8.1,5.9-12.4c1.2-3.2,3.4-7.6,5.9-6.9s-0.5,8.9-1.2,11.3
	S90.4,63.8,89,70.5s-2.1,13.1-2.5,15.4c-0.8,5.6-2.1,11-3.9,16.4c-2.3,6.8-7.4,11.6-14.7,9.7s-11.8-9.3-14.7-14.1s-0.7-9.8,2.5-11.2
	s5.6,0.8,7.7,2.8c2.1,2,3.7,4.5,3.1,7.4s-2.2,3.6-3.1,0.5c-0.8-3.1-0.5-5.6,2.3-8.5c2.7-2.9,5.8-3.6,8.3-2.1s3.3,4.4,2.3,8.1
	s-5.4,9-7.2,10.9s-1.7,2-2.2,1.8s0.5-1,0.7-1.3c2.5-2.4,4.6-5.1,6.3-8.1c2.2-4.3,0.8-7.6-0.9-8.9s-4.9-1.5-6.6,0.1
	c-1.3,1.1-2.2,2.7-2.6,4.3c-0.2,0.9,0.3,2.6,1.2,2.6s1.3-1.9,0.3-3.6s-3.1-4.5-6.9-3.9s-5.6,5.3-4.2,8.8c1.9,4.4,4.7,8.3,8.3,11.4
	c2.7,2.4,6.6,3.3,10.1,2.2c2.6-0.8,5.9-3,8.5-8.2c2.3-4.7,3.9-9.7,4.8-14.9c0.6-3.7,1.5-11.5,2.3-15.1s2.3-10.2,3.5-14.4
	s1.9-6.6,1.8-9.9s-3.8-0.2-4.7,1.9c-1,2.1-3.7,8.3-4.8,11.2s-1.6,3.3-2.6,3s-0.5-4.9-0.2-6.1c1.3-5,2.2-10.1,2.7-15.3
	c0.4-6.1,0-7.2-1.5-9.2s-3.9-1.8-5.3,1.9s-2,7.4-2.8,14.2s-1.3,11-2.4,13.2s-2.2,1.3-2.7-1.8s-0.7-11.1-1.3-16.9s-1-13.1-2.8-18.5
	c-1.8-5.4-4.9-4.1-6.1-1.2s-1.2,8.2-1.1,13.8s1.3,16.1,1.7,21.3s-0.3,6.7-1.1,6.9s-2.6-1-3.7-6.7s-3-13-4.4-18s-3.1-8.5-4.4-9.8
	c-1.3-1.3-3-1.2-4.1,1s-0.9,4.6-0.5,8.3c1.6,8.8,3.6,17.5,6.1,26.1c1.8,5.4,3.1,10.2,3.1,12.4s-1,3.6-3.3,1.1s-4-6.7-7.6-11.1
	s-6.2-5.2-7.5-5.3c-1.3-0.1-2.9,1.3-2.3,4.4s3.6,9.6,6.9,17.4s4.4,11.4,5.8,13.5s2.3,3.7,7.4,6.9s6.4,3.9,6.7,6
	c0.2,1.6,0.3,3.2,0.3,4.8c0,0.5-0.2,0.5-0.3,0.5S56.1,118.4,56.1,118z"/>
<g id="Ellipse_40">
	<path class="st1" d="M63.9,127.9C28.7,127.9,0,99.2,0,63.9S28.7,0,63.9,0s63.9,28.7,63.9,63.9S99.2,127.9,63.9,127.9z M63.9,6.2
		C32.1,6.2,6.2,32.1,6.2,63.9c0,31.8,25.9,57.8,57.8,57.8c31.8,0,57.8-25.9,57.8-57.8C121.7,32.1,95.8,6.2,63.9,6.2z"/>
</g>
</svg>
