<svg xmlns="http://www.w3.org/2000/svg" xmlns:xlink="http://www.w3.org/1999/xlink" width="806" height="682" viewBox="0 0 806 682">
  <defs>
    <clipPath id="clip-path">
      <rect id="Rectangle_334" data-name="Rectangle 334" width="806" height="682" transform="translate(0 897.693)" fill="#fff" stroke="#707070" stroke-width="1"/>
    </clipPath>
  </defs>
  <g id="Mask_Group_126" data-name="Mask Group 126" transform="translate(0 -897.693)" clip-path="url(#clip-path)">
    <g id="Group_173" data-name="Group 173" transform="translate(-25.001 1087.391)">
      <g id="Group_156" data-name="Group 156" transform="translate(0 0)">
        <line id="Line_39" data-name="Line 39" x1="243.502" y1="0.129" transform="translate(-1 347.673)" fill="none" stroke="#2f2b23" stroke-width="2.2"/>
        <path id="Book" d="M730.865,619.01s-37.647,3.19-71.478,3.6c-33.133.4-69.439,1.531-82.689,1-11.465-.452-25.429.8-25.825,8.807,0,0,4.808,10.211-.8,15.217s-10.211,9.608-45.05,12.417-80.491,7.2-106.919,10.013-54.459,4.6-67.471,2.4-11.211-6.609-19.621-20.422-25.627-56.665-30.435-67.074-30.832-65.472-37.242-80.689a94.02,94.02,0,0,1-6.2-49.255c2.4-16.416,16.622-28.832,21.62-32.434s5.006-6.807,2.6-13.615-7.609-18.423-11.211-21.62-9.211.6-11.814,4.4-11.211,21.422-18.621,25.825-16.82-1.2-18.217-17.217,5.006-28.832,11.211-37.639,18.217-16.82,26.23-5.808,9.211,10.409,30.03,54.658,60.267,130.547,68.875,150.366,8.41,25.23,13.012,31.038,8.212,7.2,12.615,1.8-2.6-18.82-4.007-22.223-20.026-37.845-34.838-69.875-46.454-95.907-48.858-110.323-5.808-38.647,3.8-53.46,70.081-18.423,85.5-18.621,40.646,1.4,63.472,16.019,41.043,39.845,51.254,59.069,45.454,86.5,50.857,99.913,20.827,45.851,11.211,60.267-28.229,24.23-52.055,28.229-63.068,9.013-89.1,8.807-30.03,4.4-40.043,19.819a339.805,339.805,0,0,0-22.628,42.05c-2.8,6.609-2.8,13.813,6.2,13.012s55.864-2.206,77.286-4.808,67.677-8.006,90.9-10.013,28.229-2.8,29.634-7.807,8.212-31.435,13.417-43.05,10.211-18.018-4.6-16.019-73.485,9.41-105.515,12.012-75.286,4.6-85.7,10.013-24.429,34.838-27.634,40.242-6.006,6.411-10.409,3.007S309.8,635.433,311.8,626.618a73.879,73.879,0,0,1,16.416-30.832c8.608-9.41,12.012-14.614,9.814-20.62s-5.808-16.217-11.615-21.224-9.41-.2-15.217,5.4-10.409,26.032-14.416,35.838-11.719,22.739-31.038,35.037c-22.6,14.392-27.031,15.614-50.857,19.621s-45.248,5.808-45.248,5.808-2.4,0-2.4,1.4,4.205.6,6.2.6,40.043-5.2,55.864-8.807,32.387-11.465,48.905-25.73,17.867-18.621,22.826-32.585,11.56-21.922,19.375-21.477,8.109,14.718,5.4,21.176S318.453,604.95,315.144,612s-6.911,18.47-4.054,28.229,5.744,19.153,11.409,22.525c4.7,2.8,6.522.571,6.911-.9.857-3.277,2.1-9.465,10.362-24.627s14.7-24.334,19.518-27.174,18.621-4.808,32.585-6.458,83.188-6.458,102.714-8.561,25.532-2.1,36.338,1.65,13.067,12.163,10.513,25.08-10.814,19.668-28.832,24.476-41.146,9.013-82.292,13.218-48.207,6.308-62.917-2.555-12.766-18.018-9.608-28.078,9.561-27.849,18.772-31.689,24.929-3.3,31.831-3.15a297.487,297.487,0,0,0,45.2-2.856c19.668-2.856,37.092-6.157,47.755-6.911s51.96-5.4,60.37-6.458,16.067-1.2,10.814-11.711S547.152,516.8,541.9,507.489,516.82,460.94,508.711,445.77s-32.133-59.466-38.139-73.279-19.97-35.592-25.079-47.6-9.307-17.272-20.724-15.614-94.907,9.608-127.643,13.512-49.707,2.706-47.6,12.314,23.723,60.521,33.64,82.895,35.441,75.08,42.495,89.948,20.724,41.447,23.128,49.1,2.555,7.958,0,8.862-7.2-4.054-10.965-10.965-25.825-54.808-36.489-77.333-28.079-62.171-34.688-79.134-20.874-47.906-24.326-55.713-9.91-5.7-18.923,2.555-20.573,25.976-25.976,36.489-5.7,12.615-3.15,19.375,11.711,31.538,14.567,37.393,7.2,9.164,10.362,1.8,9.164-32.284,18.621-36.187,16.971,4.205,12.012,15.916-10.513,19.669-13.512,28.531-3.753,10.513-7.2,7.506-7.807-2.1-6.458,4.205,7.2,21.327,14.115,36.036S262,547.587,268.461,562.3s23.58,56.316,31.387,72.684a297.262,297.262,0,0,0,19.224,34.386c2.705,3.9,10.663,5.855,19.518,6.157s41.447-.754,62.473-2.856,56.165-7.506,79.285-8.561,58.268-5.855,69.074-8.561,10.663-7.506,8.561-11.409-7.759-9.426-4.205-14.115,11.861-5.252,29.88-4.808,84.49.3,147.216-4.657S730.865,619.01,730.865,619.01Z" transform="translate(72.878 -308.974)" fill="#2f2b23"/>
      </g>
    </g>
  </g>
</svg>
