<?xml version="1.0" encoding="utf-8"?>
<!-- Generator: Adobe Illustrator 24.0.1, SVG Export Plug-In . SVG Version: 6.00 Build 0)  -->
<svg version="1.1" id="Layer_1" xmlns="http://www.w3.org/2000/svg" xmlns:xlink="http://www.w3.org/1999/xlink" x="0px" y="0px"
	 viewBox="0 0 127.9 127.9" style="enable-background:new 0 0 127.9 127.9;" xml:space="preserve">
<style type="text/css">
	.st0{fill:#2F2B23;}
	.st1{fill:#949D8C;}
</style>
<path id="natural" class="st0" d="M79.5,112.9c0,0-3.4,3.6-11.4,2.2s-6-6.7-5.6-7.8s2-2.5,6.6-1.7s7.6,3.3,9.9,1.1s-1.4-4.1-4-4
	c-1.4,0-2.8,0.3-4.2,0.8c0,0-3.4,1.1-2.3-1.4s1.3-1.9,1.8-7.5s1.8-16.7,0.6-23.3s-4.1-8.7-9.8-12S47.9,47.7,45.4,40.9
	c-2.7-7-3.3-14.7-1.7-22.1c1.7-8.4,2.4-6.8,6.3-4.9s10.7,8.8,16.4,18.2c3.7,6.3,5.5,13.5,5.2,20.7c0,0,0.1,3.3-1.3,3.9
	s-3.3,0.7-6.8-5c-3.6-5.7-6.7-11.6-9.3-17.9c-0.8-2-1.5-4-2.1-6.1c0-0.1-0.3-1.1,0-1.1c0.3-0.1,0.5,0.5,0.6,0.8
	c0.4,1.2,4.1,12.4,7.6,17.3s5.1,6,6.8,5.7s2.4-5.9,1-11.9c-1.7-6.2-5.4-11.6-10.5-15.5c-4.6-3.2-9.3-5-11-1.1s-2.6,8.5-1.1,15.9
	S54,52.5,56.5,54.8c2.4,2.1,5.1,3.8,8,5.1c2.9,1.4,6.3,2.9,7.1,6.5c0.8,3.6,0.8,13.1,0,22.7s-0.7,9.3,0.5,10.7s2.3,1.5,6,1.7
	s7.1,2.5,6.9,5.5s-3.8,4.3-7.6,2.4s-5.5-3.1-8.2-1s-1.3,5.4,2.4,5.4C74.2,114.1,76.9,113.7,79.5,112.9z"/>
<g id="Ellipse_40">
	<path class="st1" d="M63.9,127.9C28.7,127.9,0,99.2,0,63.9S28.7,0,63.9,0s63.9,28.7,63.9,63.9S99.2,127.9,63.9,127.9z M63.9,6.2
		C32.1,6.2,6.2,32.1,6.2,63.9c0,31.8,25.9,57.8,57.8,57.8c31.8,0,57.8-25.9,57.8-57.8C121.7,32.1,95.8,6.2,63.9,6.2z"/>
</g>
</svg>
