<?xml version="1.0" encoding="utf-8"?>
<!-- Generator: Adobe Illustrator 24.0.1, SVG Export Plug-In . SVG Version: 6.00 Build 0)  -->
<svg version="1.1" id="Layer_1" xmlns="http://www.w3.org/2000/svg" xmlns:xlink="http://www.w3.org/1999/xlink" x="0px" y="0px"
	 viewBox="0 0 127.9 127.9" style="enable-background:new 0 0 127.9 127.9;" xml:space="preserve">
<style type="text/css">
	.st0{fill:#949D8C;}
</style>
<path id="Path_57" d="M37,63c0,0,9.6,11.1,12.7,16.2c3,5.1,1.1,6.9-5.4,3.5c-6.5-3.4-11.6-6.3-16.2-15.6c-2.8-5.6-4.7-11.7-5.6-17.9
	c0,0-1.3-6.1,6.1-1.8c8.5,4.8,16.2,11.1,22.6,18.5c7.4,8.7,9.6,15.2,11.4,26.5s1.1,13.4,1.1,13.4s-0.9,4.8-1.6,0.2
	s-0.8-14.2,0.5-19.6c1.9-5.7,4.9-10.9,8.9-15.4c6.8-8,16.6-17.5,19.3-24.5c2.7-7.1,4.3-13.3,3.7-19.5c-0.5-6.2-0.1-7.5-6.5-3.4
	c-6.5,4.1-11.7,8.2-19.6,20.3S62,68.8,62.2,71s0.8,5.4,3.4,2.1c3.9-5.2,7.3-10.8,10.1-16.7c3-6.3,4.4-9.4,4.4-9.4s0.5-1.9-0.7,0.4
	s-5,11.1-8.9,17.3c-3.9,6.2-6.3,7.4-6.9,3.6c-0.6-3.8-1.5-16.2,7-27.1s10.7-11.2,14.3-13.5c3.6-2.3,7.8-1.8,7.5,5.1
	S92,46.7,82.3,57.7S66.5,75.6,63.9,81.3c-2.6,5.7-2.7,9.5-2.9,17.1c-0.2,7.6,0.1,10.6,1.1,14.9s2.5,3.8,2.7-1.3
	c0.2-5.1-1.6-21.1-3.6-28.5c-1.8-6.8-5.1-13-9.8-18.2c-4-4.1-13.9-13.7-19.3-17.3s-12.7-7.9-12-2.7c0.7,5.1,3.8,18,11,28.2
	s21.1,14.1,21.8,14.3c0.8,0.1,3.4,0.7,1.3-3.5c-2.1-4.2-16.7-21.3-16.7-21.3S36.3,62.2,37,63z"/>
<g id="Ellipse_40">
	<path class="st0" d="M63.9,127.9C28.7,127.9,0,99.2,0,63.9S28.7,0,63.9,0s63.9,28.7,63.9,63.9S99.2,127.9,63.9,127.9z M63.9,6.2
		C32.1,6.2,6.2,32.1,6.2,63.9c0,31.8,25.9,57.8,57.8,57.8c31.8,0,57.8-25.9,57.8-57.8C121.7,32.1,95.8,6.2,63.9,6.2z"/>
</g>
</svg>
