<?xml version="1.0" encoding="utf-8"?>
<!-- Generator: Adobe Illustrator 24.0.1, SVG Export Plug-In . SVG Version: 6.00 Build 0)  -->
<svg version="1.1" id="Layer_1" xmlns="http://www.w3.org/2000/svg" xmlns:xlink="http://www.w3.org/1999/xlink" x="0px" y="0px"
	 viewBox="0 0 127.9 127.9" style="enable-background:new 0 0 127.9 127.9;" xml:space="preserve">
<style type="text/css">
	.st0{fill:#2F2B23;}
	.st1{fill:#949D8C;}
</style>
<g id="plant-based" transform="translate(0)">
	<path id="Path_188" class="st0" d="M44.6,96.7c-0.1,0-0.2,0-0.2,0c-1-0.2-8.6-1.7-17.1-9.4C18,78.9,12.7,61.5,12.5,60.1
		c-0.5-2.1-0.6-4.2-0.4-6.4c0.4-2.4,2.2-2.4,5.2-1.1c4.6,2,8.9,4.4,13.1,7.1c3.5,2.5,7,6.4,11.6,12c3.4,4.2,5.9,9,7.3,14.1
		c0.3,1.6,0.8,6.4-3.4,4.2S37,83.5,32.4,78.2s-7.2-9.4-7.8-10.7s-0.5-2.3,0.1-1c2.2,3.7,4.7,7.2,7.5,10.5c3.3,3.7,4.4,5.1,6.8,7
		s4.9,3.2,6.5,2.1s-0.4-7.8-2.7-11.5s-6.3-9.3-11.2-13.1c-4.9-3.8-10.7-6.1-13.7-6s-3.4,2.9-3,6.8c0.3,4.6,1.7,9,4.1,13
		c3,5.4,6.1,10.1,9.9,13c3.7,2.9,8.5,6.2,12.1,7.3C44.5,96.6,45.1,96.7,44.6,96.7z"/>
	<path id="Path_189" class="st0" d="M61.8,106.2c0.4-3.6,0.2-7.2-0.8-10.7c-1.6-5.6-3.4-8.2-6.7-13.3c-4.1-6.8-6.7-14.4-7.5-22.3
		c-0.8-8.6,2.7-20.3,4.5-24.2s3.6-8.6,7.6-13.4s6.1,0.3,7.5,3s4.4,10,6.7,22s1.7,21.8-1.3,28.8s-5.9,10.6-8.2,5.6
		c-2.3-5-3.2-14.1-3.2-25.7S61,41.9,61,41.9s0-0.6,0.2-0.6s0.2,0.7,0.1,0.9c-0.5,5.1-0.6,10.3-0.4,15.5c0.3,7.6,0.7,12,2.1,16.7
		c1.4,4.8,3.6,6.3,5.9,3c2.6-3.4,4.2-7.5,4.7-11.8c0.7-6.8,0.2-13.7-1.4-20.3c-1.5-5.6-3.9-12.7-6.5-16c-2.6-3.3-5.2-4.9-9.2,0.4
		s-6.1,8.6-7.5,14.6s-2.1,9.1-1.8,14.6c0.4,5.2,1.5,10.4,3.4,15.2c1.5,4.1,5.2,9.7,6.2,11c1.5,2.2,2.7,4.6,3.8,7
		c1.1,2.9,1.7,5.9,1.8,8.9c0.1,1.7-0.1,3.3-0.3,5C62.1,106.8,61.7,107.6,61.8,106.2z"/>
	<path id="Path_190" class="st0" d="M73.2,96.7c0,0,5.4,0,14.4-3.6s10.6-5.9,16.3-12.5s8.3-15.6,8.5-18.9c0.2-3.2-1.7-3.7-6.5-3.4
		s-12.4,2-16.7,5.4c-4.3,3.3-12,9.8-14.9,15.6s-2.3,7.9-0.6,8s4.6-1.1,8.1-4.4c3.8-3.3,7.8-6.3,12.1-8.9c1.4-0.7,1.9-1,2.1-0.9
		s-0.6,0.5-1,0.7c-3.6,2-6.9,4.5-9.8,7.3c-4.7,4.4-9.7,9.1-13.3,9.7s-2.7-2.2-2.2-4.7s3.5-8.2,9.6-14.3s13.9-12.9,26.2-15.3
		s11.8,0.1,10.4,3.9c-2.4,6.5-5.6,12.6-9.6,18.2c-5.1,7.1-10.1,11.3-15,13.5c-4.3,1.9-8.8,3.4-13.4,4.5c-2.2,0.4-4.2,0.6-4.8,0.6
		c-0.2,0-0.4,0-0.5-0.1C72.3,96.9,72.7,96.7,73.2,96.7z"/>
</g>
<g id="Ellipse_40">
	<path class="st1" d="M63.9,127.9C28.7,127.9,0,99.2,0,63.9S28.7,0,63.9,0s63.9,28.7,63.9,63.9S99.2,127.9,63.9,127.9z M63.9,6.2
		C32.1,6.2,6.2,32.1,6.2,63.9c0,31.8,25.9,57.8,57.8,57.8c31.8,0,57.8-25.9,57.8-57.8C121.7,32.1,95.8,6.2,63.9,6.2z"/>
</g>
</svg>
